<svg xmlns="http://www.w3.org/2000/svg" viewBox="0 0 64 80" x="0px" y="0px"><path d="M30.04639,28.62012c-.08008,.09668-.18262,.1709-.29834,.2168l-2.83643,1.13281,1.62842,2.58301c.06689,.10645,.10596,.22656,.11426,.35059l.20068,3.04785,2.96094-.75c.06006-.01563,.12207-.02344,.18408-.02344s.12402,.00781,.18408,.02344l2.96094,.75,.20068-3.04785c.0083-.12402,.04736-.24414,.11426-.35059l1.62842-2.58301-2.83643-1.13281c-.11572-.0459-.21826-.12012-.29834-.2168l-1.95361-2.34668-1.95361,2.34668Z"/><path d="M20.06201,25.10742v13.78516l11.93799,6.8916,11.93799-6.8916v-13.78516l-11.93799-6.8916-11.93799,6.8916Zm14.92285,2.40723l3.49658,1.39648c.20654,.08203,.36621,.25293,.43506,.46484s.04004,.44336-.0791,.63184l-2.00732,3.18457-.24756,3.75684c-.01465,.22168-.12744,.42578-.30762,.55664-.18026,.13193-.4109,.17537-.625,.12012l-3.6499-.9248-3.6499,.9248c-.21533,.05566-.44434,.01172-.625-.12012-.18018-.13086-.29297-.33496-.30762-.55664l-.24756-3.75684-2.00732-3.18457c-.11914-.18848-.14795-.41992-.0791-.63184s.22852-.38281,.43506-.46484l3.49658-1.39648,2.4082-2.89355c.28516-.34375,.86816-.34375,1.15332,0l2.4082,2.89355Z"/><path d="M59,21.61523h-10.11035l-16.51465-9.53418c-.23242-.13477-.51758-.13477-.75,0L15.11035,21.61523H5c-2.06787,0-3.75,1.68262-3.75,3.75v13.26953c0,2.06738,1.68213,3.75,3.75,3.75H15.11035l16.51465,9.53418c.11621,.06738,.24561,.10059,.375,.10059s.25879-.0332,.375-.10059l16.51465-9.53418h10.11035c2.06787,0,3.75-1.68262,3.75-3.75v-13.26953c0-2.06738-1.68213-3.75-3.75-3.75ZM8.5625,35.875c0,.41406-.33594,.75-.75,.75s-.75-.33594-.75-.75v-7.875c0-.41406,.33594-.75,.75-.75s.75,.33594,.75,.75v7.875Zm5.1875,0c0,.41406-.33594,.75-.75,.75s-.75-.33594-.75-.75v-7.875c0-.41406,.33594-.75,.75-.75s.75,.33594,.75,.75v7.875Zm31.68799,3.4502c0,.26758-.14307,.51563-.375,.64941l-12.68799,7.3252c-.11621,.06738-.24561,.10059-.375,.10059s-.25879-.0332-.375-.10059l-12.68799-7.3252c-.23193-.13379-.375-.38184-.375-.64941v-14.65039c0-.26758,.14307-.51563,.375-.64941l12.68799-7.3252c.23242-.13477,.51758-.13477,.75,0l12.68799,7.3252c.23193,.13379,.375,.38184,.375,.64941v14.65039Zm6.31201-3.4502c0,.41406-.33594,.75-.75,.75s-.75-.33594-.75-.75v-7.875c0-.41406,.33594-.75,.75-.75s.75,.33594,.75,.75v7.875Zm5.1875,0c0,.41406-.33593,.75-.75,.75s-.75-.33594-.75-.75v-7.875c0-.41406,.33594-.75,.75-.75s.75,.33594,.75,.75v7.875Z"/></svg>