<svg xmlns="http://www.w3.org/2000/svg" xmlns:xlink="http://www.w3.org/1999/xlink" version="1.1" x="0px" y="0px" viewBox="0 0 64 80" style="enable-background:new 0 0 64 64;" xml:space="preserve"><g><path d="M62.387,49H49v-4.424c1.763-0.774,3-2.531,3-4.576v-1h-2.619c0.548-0.667,1.065-1.361,1.541-2.09l0.259,0.42l4.294-2.326   c1.19-0.645,2.032-1.695,2.37-2.958c0.326-1.218,0.137-2.486-0.53-3.571l-0.496-0.805l-2.534,1.372   c0.301-1.266,0.517-2.554,0.625-3.863c0.258,0.203,0.532,0.39,0.83,0.547l0.814,0.427l2.698-4.24   c0.721-1.132,0.93-2.459,0.589-3.735c-0.354-1.329-1.296-2.477-2.583-3.151l-0.814-0.427l-1.992,3.13   c-0.267-1.296-0.63-2.565-1.088-3.794C53.576,13.963,53.783,14,54,14h1V9c0-2.757-2.243-5-5-5h-1v3.149   c-1.155-1.167-2.396-2.272-3.41-3.013L44.41,5.75c1.443,1.055,3.389,2.915,4.789,4.568c0.258,0.935,0.773,1.757,1.476,2.388   C52.194,15.856,53,19.41,53,23c0,2.574-0.409,5.088-1.197,7.483c-0.805,0.635-1.384,1.485-1.648,2.471   c-0.138,0.518-0.164,1.043-0.12,1.56c-0.931,1.663-2.058,3.178-3.355,4.518c-2.269,0.147-4.136,1.792-4.579,3.968h-3.864   C43.402,39.521,47,31.867,47,23c0-12.131-6.729-22-15-22s-15,9.869-15,22c0,8.867,3.598,16.521,8.763,20h-3.864   c-0.444-2.176-2.311-3.821-4.579-3.968c-1.297-1.339-2.424-2.855-3.355-4.518c0.045-0.518,0.019-1.043-0.12-1.56   c-0.264-0.987-0.843-1.836-1.648-2.471C11.409,28.088,11,25.574,11,23c0-3.59,0.806-7.144,2.325-10.294   c0.703-0.631,1.218-1.452,1.476-2.388c1.399-1.653,3.346-3.513,4.789-4.568l-1.18-1.614C17.396,4.878,16.155,5.982,15,7.149V4h-1   c-2.757,0-5,2.243-5,5v5h1c0.217,0,0.424-0.037,0.634-0.064c-0.458,1.228-0.821,2.497-1.088,3.794l-1.992-3.13l-0.814,0.427   c-1.287,0.674-2.228,1.822-2.583,3.151c-0.341,1.276-0.131,2.603,0.589,3.735l2.698,4.24l0.814-0.427   c0.298-0.156,0.573-0.343,0.83-0.547c0.108,1.309,0.323,2.598,0.625,3.864L7.181,27.67l-0.496,0.805   c-0.667,1.084-0.856,2.353-0.53,3.571c0.337,1.262,1.179,2.312,2.37,2.958l4.294,2.326l0.259-0.42   c0.476,0.729,0.994,1.423,1.541,2.09H12v1c0,2.045,1.237,3.802,3,4.576V49H1.613l2.333,7l-2.333,7H28v-6h8v6h26.387l-2.333-7   L62.387,49z M51,6.171C52.164,6.584,53,7.696,53,9v2.829c-1.164-0.413-2-1.525-2-2.829V6.171z M11,9c0-1.304,0.836-2.416,2-2.829V9   c0,1.304-0.836,2.416-2,2.829V9z M55.913,31.529c-0.194,0.726-0.688,1.335-1.39,1.716l-2.48,1.343   c-0.069-0.368-0.055-0.747,0.044-1.118c0.194-0.726,0.688-1.335,1.389-1.715l2.481-1.343   C56.026,30.779,56.012,31.159,55.913,31.529z M55.435,19.912l1.646-2.586c0.404,0.378,0.69,0.845,0.829,1.366   c0.194,0.729,0.072,1.491-0.345,2.146l-1.646,2.586c-0.404-0.378-0.69-0.846-0.829-1.367C54.896,21.33,55.019,20.567,55.435,19.912   z M47,41h2.829c-0.413,1.164-1.525,2-2.829,2h-2.829C44.584,41.836,45.696,41,47,41z M32,3c3.116,0,5.977,1.698,8.219,4.52   C37.994,9.101,35.056,10,32,10s-5.994-0.899-8.219-2.48C26.023,4.698,28.884,3,32,3z M22.637,9.161C25.197,10.971,28.543,12,32,12   s6.803-1.029,9.363-2.839C43.61,12.757,45,17.63,45,23s-1.39,10.243-3.637,13.839C38.803,35.029,35.457,34,32,34   s-6.803,1.029-9.363,2.839C20.39,33.243,19,28.37,19,23S20.39,12.757,22.637,9.161z M23.781,38.48C26.006,36.899,28.944,36,32,36   s5.994,0.899,8.219,2.48C37.977,41.302,35.116,43,32,43S26.023,41.302,23.781,38.48z M8.909,22.059   c-0.139,0.521-0.424,0.988-0.829,1.367l-1.646-2.586c-0.417-0.655-0.539-1.417-0.345-2.146c0.139-0.521,0.425-0.988,0.829-1.366   l1.646,2.586C8.981,20.567,9.104,21.329,8.909,22.059z M11.957,34.588l-2.48-1.343c-0.702-0.38-1.196-0.99-1.39-1.716   c-0.099-0.371-0.113-0.75-0.044-1.118l2.48,1.343c0.702,0.38,1.196,0.989,1.39,1.715C12.012,33.841,12.026,34.221,11.957,34.588z    M14.171,41H17c1.304,0,2.416,0.836,2.829,2H17C15.696,43,14.584,42.164,14.171,41z M22,45h20h5v10H17V45H22z M4.387,51H15v5.594   L23.078,61H4.387l1.667-5L4.387,51z M26,60.315L19.922,57H26V60.315z M44.078,57L38,60.315V57H44.078z M59.613,61H40.922L49,56.594   V51h10.613l-1.667,5L59.613,61z"/><polygon points="29,28 29,30 31,30 31,32 33,32 33,30 35,30 35,28 33,28 33,26 35,26 35,24 33,24 33,22 35,22 35,20 33,20 33,18    35,18 35,16 33,16 33,14 31,14 31,16 29,16 29,18 31,18 31,20 29,20 29,22 31,22 31,24 29,24 29,26 31,26 31,28  "/><rect x="19" y="47" width="26" height="2"/><rect x="19" y="51" width="26" height="2"/></g></svg>