<svg xmlns="http://www.w3.org/2000/svg" viewBox="0 0 64 80" x="0px" y="0px"><path d="M44.68799,36.33691c.55225,0,1-.44727,1-1v-10.66211c0-.35742-.19043-.6875-.5-.86621l-12.68799-7.3252c-.30957-.17773-.69043-.17773-1,0l-12.68799,7.3252c-.30957,.17871-.5,.50879-.5,.86621v14.65039c0,.35742,.19043,.6875,.5,.86621l12.68799,7.3252c.15479,.08887,.32715,.13379,.5,.13379s.34521-.04492,.5-.13379l12.68799-7.3252c.47852-.27637,.64209-.8877,.36621-1.36621-.27686-.47949-.8877-.64258-1.36621-.36621l-12.18799,7.03711-11.68799-6.74805v-13.49609l11.68799-6.74805,11.68799,6.74805v10.08496c0,.55273,.44775,1,1,1Z"/><path d="M59,21.36523h-10.04346l-16.45654-9.50098c-.30957-.17773-.69043-.17773-1,0l-13.229,7.6377c-.47852,.27637-.64209,.8877-.36621,1.36621,.27637,.47852,.8877,.6416,1.36621,.36621l12.729-7.34961,16.18848,9.34668c.15186,.08789,.32471,.13379,.5,.13379h10.31152c1.10303,0,2,.89746,2,2v13.26953c0,1.10254-.89697,2-2,2h-10.31152c-.17529,0-.34814,.0459-.5,.13379l-16.18848,9.34668-16.18848-9.34668c-.15186-.08789-.32471-.13379-.5-.13379H5c-1.10303,0-2-.89746-2-2v-13.26953c0-1.10254,.89697-2,2-2H15.31152c.55225,0,1-.44727,1-1s-.44775-1-1-1H5c-2.20557,0-4,1.79395-4,4v13.26953c0,2.20605,1.79443,4,4,4H15.04346l16.45654,9.50098c.15479,.08887,.32715,.13379,.5,.13379s.34521-.04492,.5-.13379l16.45654-9.50098h10.04346c2.20557,0,4-1.79395,4-4v-13.26953c0-2.20605-1.79443-4-4-4Z"/><path d="M38.57422,28.67871l-3.4375-1.37305-2.36816-2.84473c-.37988-.45703-1.15723-.45703-1.53711,0l-2.36816,2.84473-3.4375,1.37305c-.27539,.11035-.48828,.33691-.58008,.62012-.0918,.28223-.05322,.59082,.10498,.8418l1.97412,3.13086,.24316,3.69336c.01953,.29688,.16992,.56934,.41016,.74316,.24023,.17578,.54639,.2334,.8335,.16113l3.58838-.91016,3.58838,.91016c.28605,.07204,.59259,.01471,.8335-.16113,.24023-.17383,.39062-.44629,.41016-.74316l.24316-3.69336,1.97412-3.13086c.1582-.25098,.19678-.55957,.10498-.8418-.0918-.2832-.30469-.50977-.58008-.62012Zm-3.32617,3.74121c-.08838,.14063-.14063,.30176-.15186,.46777l-.18115,2.74707-2.66943-.67676c-.08057-.02051-.16309-.03027-.24561-.03027s-.16504,.00977-.24561,.03027l-2.66943,.67676-.18115-2.74707c-.01123-.16602-.06348-.32715-.15186-.46777l-1.46826-2.3291,2.55713-1.02148c.1543-.06152,.29102-.16113,.39746-.28906l1.76172-2.11621,1.76172,2.11621c.10645,.12793,.24316,.22754,.39746,.28906l2.55713,1.02148-1.46826,2.3291Z"/><path d="M52,35.875v-7.875c0-.55273-.44775-1-1-1s-1,.44727-1,1v7.875c0,.55273,.44775,1,1,1s1-.44727,1-1Z"/><path d="M57.1875,35.875v-7.875c0-.55273-.44775-1-1-1s-1,.44727-1,1v7.875c0,.55273,.44776,1,1,1s1-.44727,1-1Z"/><path d="M12,28v7.875c0,.55273,.44775,1,1,1s1-.44727,1-1v-7.875c0-.55273-.44775-1-1-1s-1,.44727-1,1Z"/><path d="M6.8125,28v7.875c0,.55273,.44775,1,1,1s1-.44727,1-1v-7.875c0-.55273-.44775-1-1-1s-1,.44727-1,1Z"/></svg>