<svg xmlns="http://www.w3.org/2000/svg" xmlns:xlink="http://www.w3.org/1999/xlink" version="1.1" x="0px" y="0px" viewBox="0 0 64 80" style="enable-background:new 0 0 64 64;" xml:space="preserve"><g><path d="M24,26c0,4.136,1.611,8.025,4.536,10.95l1.05,1.05c0.645,0.645,1.502,1,2.414,1s1.77-0.355,2.414-1l1.05-1.05   C38.389,34.025,40,30.136,40,26s-1.611-8.025-4.536-10.95L34.414,14c-1.289-1.29-3.539-1.29-4.828,0l-1.05,1.05   C25.611,17.975,24,21.864,24,26z M31,36.586L30.414,36h3.172L33,36.586C32.474,37.112,31.526,37.112,31,36.586z M35.354,34h-6.708   C26.937,31.694,26,28.922,26,26s0.937-5.694,2.646-8h6.708C37.063,20.306,38,23.078,38,26S37.063,31.694,35.354,34z M32,15   c0.372,0,0.737,0.151,1,0.414L33.586,16h-3.172L31,15.414C31.263,15.151,31.628,15,32,15z"/><polygon points="35,25 35,23 33,23 33,21 31,21 31,23 29,23 29,25 31,25 31,27 29,27 29,29 31,29 31,31 33,31 33,29 35,29 35,27    33,27 33,25  "/><path d="M32,51c1.654,0,3-1.346,3-3s-1.346-3-3-3s-3,1.346-3,3S30.346,51,32,51z M32,47c0.551,0,1,0.449,1,1s-0.449,1-1,1   s-1-0.449-1-1S31.449,47,32,47z"/><path d="M62,27c-4.879,0-8.855,3.905-8.987,8.753c-0.148,0.314-0.529,1.096-1.135,2.173c-0.604-3.249-3.455-5.719-6.877-5.719h-1v3   c0,3.271,2.258,6.017,5.294,6.781c-0.936,1.309-2.037,2.693-3.294,4.022V46c0-3.86-3.14-7-7-7h-1v3c0,3.165,2.112,5.842,5,6.705   v0.069c-1.557,1.239-3.277,2.314-5.155,3.068C38.573,50.738,39,49.418,39,48c0-3.86-3.14-7-7-7s-7,3.14-7,7   c0,1.417,0.426,2.735,1.153,3.838c-1.877-0.755-3.596-1.831-5.153-3.071v-0.062c2.888-0.863,5-3.541,5-6.705v-3h-1   c-3.86,0-7,3.14-7,7v0.001c-1.255-1.327-2.355-2.708-3.29-4.015c3.034-0.766,5.29-3.511,5.29-6.78v-3h-1   c-3.421,0-6.271,2.468-6.877,5.716c-0.606-1.076-0.988-1.857-1.136-2.171C10.854,30.905,6.879,27,2,27H1v1   c0,4.743,3.691,8.632,8.35,8.967c0.272,0.558,0.755,1.5,1.438,2.667c-0.984-0.276-2.004-0.428-3.031-0.428H4.522L5.801,42.4   c0.921,2.304,2.924,3.97,5.358,4.458C11.632,46.953,12.112,47,12.592,47c0.785,0,1.567-0.125,2.315-0.375l0.72-0.24   c0.513,0.584,1.033,1.14,1.56,1.667C13.709,48.456,11,51.415,11,55v1h3c3.146,0,5.813-2.087,6.692-4.948   c2.039,1.472,4.152,2.54,6.308,3.19V63h2.414L32,60.414L34.586,63H37v-8.758c2.156-0.65,4.269-1.718,6.308-3.19   C44.187,53.913,46.854,56,50,56h3v-1c0-3.585-2.709-6.544-6.187-6.949c0.527-0.526,1.047-1.083,1.56-1.667l0.72,0.24   C49.84,46.874,50.624,47,51.408,47c0.48,0,0.96-0.047,1.434-0.142c2.434-0.487,4.437-2.153,5.357-4.457l1.279-3.194h-3.235   c-1.027,0-2.047,0.152-3.031,0.428c0.682-1.167,1.166-2.109,1.438-2.667C59.309,36.632,63,32.743,63,28v-1H62z M14,39.207   c0-2.415,1.721-4.435,4-4.899v0.899c0,2.415-1.721,4.435-4,4.899V39.207z M3.084,29.084c2.994,0.467,5.365,2.838,5.832,5.832   C5.922,34.449,3.551,32.078,3.084,29.084z M11.551,44.897c-1.769-0.354-3.224-1.565-3.894-3.239l-0.18-0.451h0.28   c1.751,0,3.482,0.51,4.957,1.445c0.469,0.675,0.978,1.373,1.535,2.082C13.381,45.018,12.449,45.075,11.551,44.897z M40,42v-0.899   c2.279,0.464,4,2.485,4,4.899v0.899C41.721,46.435,40,44.415,40,42z M32,43c2.757,0,5,2.243,5,5s-2.243,5-5,5s-5-2.243-5-5   S29.243,43,32,43z M20,46c0-2.415,1.721-4.435,4-4.899V42c0,2.415-1.721,4.435-4,4.899V46z M14,54h-0.899   c0.464-2.279,2.485-4,4.899-4h0.899C18.435,52.279,16.415,54,14,54z M35,60.586l-3-3l-3,3v-5.862C29.994,54.902,30.995,55,32,55   s2.006-0.098,3-0.276V60.586z M50.899,54H50c-2.415,0-4.435-1.721-4.899-4H46C48.415,50,50.435,51.721,50.899,54z M46,35.207   v-0.899c2.279,0.464,4,2.485,4,4.899v0.899C47.721,39.642,46,37.621,46,35.207z M56.522,41.207l-0.181,0.452   c-0.669,1.674-2.125,2.885-3.893,3.239c-0.897,0.178-1.829,0.121-2.699-0.163c0.557-0.709,1.066-1.406,1.535-2.082   c1.475-0.935,3.206-1.445,4.957-1.445H56.522z M55.084,34.916c0.467-2.994,2.838-5.365,5.832-5.832   C60.449,32.078,58.078,34.449,55.084,34.916z"/><path d="M41.707,20.707c1.06-1.06,1.934-2.309,2.573-3.667l0.85,1.133c0.561,0.748,0.87,1.675,0.87,2.61   c0,1.162-0.453,2.255-1.274,3.077l-0.312,0.312C42.857,25.729,42,27.798,42,30h2c0-1.667,0.649-3.235,1.828-4.414l0.312-0.312   c1.2-1.2,1.86-2.794,1.86-4.491c0-1.365-0.451-2.718-1.271-3.811l-3.075-4.101L42.946,15c-0.537,1.609-1.454,3.093-2.653,4.292   L41.707,20.707z"/><path d="M36.03,4.814c0.177,1.841,1.128,3.555,2.62,4.673c0.845,0.634,1.35,1.644,1.35,2.7c0,0.902-0.351,1.75-0.989,2.387   l-0.718,0.718l1.414,1.414l0.718-0.718C41.441,14.974,42,13.624,42,12.188c0-1.683-0.804-3.291-2.15-4.3   C38.691,7.019,38,5.635,38,4.188V1.233L35.773,2.57C32.829,4.336,31,7.566,31,11h2C33,8.579,34.142,6.285,36.03,4.814z"/><path d="M23,14.291V15h2v-0.709c0-1.697-0.498-3.34-1.438-4.751C23.194,8.988,23,8.347,23,7.685c0-1.275,0.708-2.421,1.849-2.991   l0.375-0.188c0.478,1.571,1.688,2.852,3.306,3.391l0.154,0.051l0.633-1.897L29.162,6C27.869,5.569,27,4.363,27,3V1.382   l-3.046,1.523C22.132,3.816,21,5.647,21,7.685c0,1.059,0.311,2.083,0.897,2.964C22.619,11.73,23,12.99,23,14.291z"/><path d="M19,19.155c0,0.354-0.104,0.698-0.3,0.993l-0.984,1.477C17.248,22.326,17,23.143,17,23.986   c0,1.624,0.902,3.083,2.354,3.809C20.369,28.302,21,29.323,21,30.458h2c0-1.898-1.055-3.604-2.752-4.453   C19.478,25.621,19,24.847,19,23.986c0-0.447,0.131-0.88,0.379-1.252l0.984-1.477C20.78,20.633,21,19.906,21,19.155   c0-0.727-0.204-1.423-0.583-2.023c1.082,0.234,2.075,0.773,2.876,1.575l1.414-1.414C23.229,15.814,21.263,15,19.171,15h-3.585   l2.89,2.89C18.814,18.228,19,18.677,19,19.155z"/></g><text x="0" y="79" fill="#000000" font-size="5px" font-weight="bold" font-family="'Helvetica Neue', Helvetica, Arial-Unicode, Arial, Sans-serif">Created by Eucalyp</text><text x="0" y="84" fill="#000000" font-size="5px" font-weight="bold" font-family="'Helvetica Neue', Helvetica, Arial-Unicode, Arial, Sans-serif">from the Noun Project</text></svg>