<svg xmlns="http://www.w3.org/2000/svg" viewBox="0 0 32 40" x="0px" y="0px"><title>a</title><g data-name="11 Emblem"><path d="M30.892,26.736c-1.166-.281-2.223-.512-3.238-.716l.3-1.256a.5.5,0,0,0-.368-.6A48.214,48.214,0,0,0,16,22.5a37.987,37.987,0,0,0-6.135.534C7.2,21.15,5.838,19.182,5.838,17.184V6.971a20.611,20.611,0,0,1,10.238-3.1,20.607,20.607,0,0,1,10.237,3.1V17.184c0,1.589-.869,3.174-2.581,4.714a.5.5,0,0,0,.668.744c1.933-1.738,2.912-3.574,2.913-5.458V6.7a.5.5,0,0,0-.215-.411A21.312,21.312,0,0,0,16.076,2.871,21.3,21.3,0,0,0,5.054,6.288a.5.5,0,0,0-.216.411V17.184c0,2.126,1.242,4.17,3.676,6.09q-.858.16-1.776.357c-2.2-2.01-3.319-4.177-3.32-6.447V5.692l.83-.573A23.139,23.139,0,0,1,16.076,1.451,22.747,22.747,0,0,1,27.906,5.12l.826.572V17.184a8.108,8.108,0,0,1-2.274,5.4.5.5,0,1,0,.749.662,9.069,9.069,0,0,0,2.525-6.061V5.43a.5.5,0,0,0-.215-.411L28.476,4.3A23.841,23.841,0,0,0,16.076.451,23.786,23.786,0,0,0,3.677,4.3l-1.043.721a.5.5,0,0,0-.216.411V17.184a9.439,9.439,0,0,0,3.148,6.707c-.381.088-.757.173-1.156.269a.5.5,0,0,0-.368.6l.3,1.257c-1.009.2-2.064.431-3.237.715a.5.5,0,0,0-.368.6l.923,3.826a.5.5,0,0,0,.485.383.521.521,0,0,0,.118-.014c2.269-.55,4.139-.919,5.886-1.163a.608.608,0,0,0,.06-.021.429.429,0,0,0,.1-.034l.021-.006.009,0c.018-.011.031-.029.048-.041a.489.489,0,0,0,.071-.065.535.535,0,0,0,.047-.067c.006-.009.016-.012.021-.022s0-.014.006-.021a.35.35,0,0,0,.02-.054.433.433,0,0,0,.018-.073.5.5,0,0,0,.01-.066.129.129,0,0,0,.005-.021v-1.59c.922-.184,1.787-.335,2.613-.455a30.918,30.918,0,0,0,3.939,1.694l.779.266a.5.5,0,0,0,.162.026.494.494,0,0,0,.161-.026l.779-.267c.2-.069.656-.228,1.274-.477a.5.5,0,0,0-.374-.928c-.594.239-1.028.393-1.224.459l-.616.211-.619-.211c-.316-.106-1.226-.43-2.417-.968,1.024-.1,2-.15,2.959-.15a37.04,37.04,0,0,1,7.418.826v1.59a.174.174,0,0,0,0,.022.487.487,0,0,0,.01.065.354.354,0,0,0,.018.073.329.329,0,0,0,.021.055.152.152,0,0,0,.006.02c0,.009.014.013.02.021a.393.393,0,0,0,.047.068.489.489,0,0,0,.071.065c.017.012.03.03.048.041l.009,0,.021.006a.429.429,0,0,0,.095.034.608.608,0,0,0,.06.021c1.747.244,3.617.613,5.886,1.163a.521.521,0,0,0,.118.014.5.5,0,0,0,.485-.383l.923-3.826A.5.5,0,0,0,30.892,26.736Zm-29.063.857c.985-.234,1.885-.427,2.75-.6l.385,1.6.006.013a.441.441,0,0,0,.047.1.424.424,0,0,0,.037.07.551.551,0,0,0,.075.07.514.514,0,0,0,.06.055l.011,0c.006,0,.009.009.014.012l1.316.7c-1.228.211-2.535.481-4.012.83Zm5.754,1.45-.723-.385c.245-.055.485-.107.723-.159Zm3.594-2.219a.612.612,0,0,0-.064.01c-1.589.23-3.315.567-5.294,1.036l-.688-2.854A46.1,46.1,0,0,1,16,23.5a46.121,46.121,0,0,1,10.87,1.513l-.69,2.854A43.2,43.2,0,0,0,16,26.461,33.716,33.716,0,0,0,11.177,26.824Zm13.962,1.834-.722.385V28.5C24.655,28.551,24.894,28.6,25.139,28.658Zm4.343,1.788c-1.477-.349-2.785-.619-4.013-.831l1.314-.7s.008-.008.012-.01l.013,0a.434.434,0,0,0,.063-.058.268.268,0,0,0,.112-.142.464.464,0,0,0,.045-.1l.006-.013.386-1.6c.87.174,1.771.368,2.751.6Z"/><path d="M15.792,5.845a8.36,8.36,0,0,0,0,15.23.49.49,0,0,0,.209.046.5.5,0,0,0,.207-.045,8.363,8.363,0,0,0,0-15.231A.5.5,0,0,0,15.792,5.845Zm4.324,7.616A7.4,7.4,0,0,1,16,20.067,7.358,7.358,0,0,1,16,6.853,7.406,7.406,0,0,1,20.116,13.461Z"/><path d="M14.382,10.958a.5.5,0,0,0,.5.5h2.236a.5.5,0,0,0,0-1H14.882A.5.5,0,0,0,14.382,10.958Z"/><path d="M17.118,12.961H14.885a.5.5,0,0,0,0,1h2.233a.5.5,0,0,0,0-1Z"/><path d="M17.118,15.464H14.883a.5.5,0,0,0,0,1h2.235a.5.5,0,0,0,0-1Z"/></g><text x="0" y="47" fill="#000000" font-size="5px" font-weight="bold" font-family="'Helvetica Neue', Helvetica, Arial-Unicode, Arial, Sans-serif">Created by Berkah Icon</text><text x="0" y="52" fill="#000000" font-size="5px" font-weight="bold" font-family="'Helvetica Neue', Helvetica, Arial-Unicode, Arial, Sans-serif">from the Noun Project</text></svg>