<svg xmlns="http://www.w3.org/2000/svg" viewBox="0 0 500 625" x="0px" y="0px"><path d="M378.361,193.9c-.9-8.64-9.283-17.028-17.935-17.917-35.718-4.135-69.109-2.236-102.432,8.447-58.259,18.626-99.639,62.311-116.546,119.93a195.963,195.963,0,0,0-7.631,38.725,262.2,262.2,0,0,0,.625,58.9c.9,8.645,9.278,17.026,17.941,17.919,23.808,2.822,47.3,2.827,70.653-.868,52.646-7.9,100.8-36.9,128.173-81.943,5.23-9.167-7.646-17.257-13.606-8.42-20.129,32.538-50.547,55.544-87.715,67.571a392.38,392.38,0,0,0-91.617-91.668c16.259-50.415,53.254-88.507,104.651-104.928a392.407,392.407,0,0,0,91.8,91.792c-.88,2.7-1.807,5.343-2.813,8-3.394,10.048,10.834,15.448,14.959,5.676,1.806-4.8,3.514-9.75,4.9-14.716a214.467,214.467,0,0,0,7.194-37v-.008h0A260.327,260.327,0,0,0,378.361,193.9ZM154.313,404.025a5.73,5.73,0,0,1-3.988-3.962,252.224,252.224,0,0,1-1.638-40.743,423.02,423.02,0,0,1,46.388,46.4A256.657,256.657,0,0,1,154.313,404.025Zm79.113-3.261c-6.222,1.395-12.52,2.517-18.867,3.329a438.751,438.751,0,0,0-64.195-64.215q1.269-9.647,3.366-18.847A376.233,376.233,0,0,1,233.426,400.764Zm125.065-208.9a5.718,5.718,0,0,1,3.988,3.969,253.864,253.864,0,0,1,1.693,40.784,422.933,422.933,0,0,1-46.445-46.445A253.666,253.666,0,0,1,358.491,191.867Zm-79.113,3.264a189.715,189.715,0,0,1,18.872-3.324,438.833,438.833,0,0,0,64.3,64.3c-.807,6.332-1.939,12.653-3.335,18.862A376.273,376.273,0,0,1,279.378,195.131Z"/><path d="M295.556,258.8a8,8,0,0,0-11.315,0l-8.654,8.654-6.844-6.843a8,8,0,0,0-11.314,11.313l6.844,6.844-7.913,7.913-6.843-6.844A8,8,0,0,0,238.2,291.147l6.844,6.844-7.913,7.913-6.843-6.843a8,8,0,1,0-11.314,11.313l6.844,6.844-8.555,8.554a8,8,0,0,0,11.314,11.314l8.554-8.555,6.846,6.846a8,8,0,1,0,11.314-11.313l-6.846-6.846,7.912-7.913,6.846,6.846a8,8,0,1,0,11.315-11.313l-6.847-6.846,7.913-7.913,6.846,6.846a8,8,0,1,0,11.314-11.313l-6.846-6.847,8.655-8.655A8,8,0,0,0,295.556,258.8Z"/><path d="M431.153,37.688H69.532a39.044,39.044,0,0,0-39,39V428.461a39.045,39.045,0,0,0,39,39H431.153a39.045,39.045,0,0,0,39-39V76.688A39.045,39.045,0,0,0,431.153,37.688Zm0,413.774H69.532a23.027,23.027,0,0,1-23-23V76.688a23.026,23.026,0,0,1,23-23H431.153a23.027,23.027,0,0,1,23,23v50.961H79.118a8,8,0,0,0,0,16H454.154V428.461A23.027,23.027,0,0,1,431.153,451.462Z"/><path d="M79.118,100.16a8.2,8.2,0,0,0,8.2-8.2c-.4-10.868-16-10.865-16.4,0A8.2,8.2,0,0,0,79.118,100.16Z"/><path d="M105.061,100.16a8.2,8.2,0,0,0,8.2-8.2c-.4-10.868-16-10.865-16.4,0A8.2,8.2,0,0,0,105.061,100.16Z"/><path d="M131,100.16a8.2,8.2,0,0,0,8.2-8.2c-.4-10.868-16-10.865-16.4,0A8.2,8.2,0,0,0,131,100.16Z"/><text x="0" y="515" fill="#000000" font-size="5px" font-weight="bold" font-family="'Helvetica Neue', Helvetica, Arial-Unicode, Arial, Sans-serif">Created by Konvisanu Suvannasri</text><text x="0" y="520" fill="#000000" font-size="5px" font-weight="bold" font-family="'Helvetica Neue', Helvetica, Arial-Unicode, Arial, Sans-serif">from the Noun Project</text></svg>