<svg xmlns="http://www.w3.org/2000/svg" data-name="Layer 3" viewBox="0 0 64 80" x="0px" y="0px"><path d="M24,28a1,1,0,0,0,1,1h4.929A18.071,18.071,0,0,0,48,10.929V6a1,1,0,0,0-1-1H42.071A18.071,18.071,0,0,0,24,23.071Zm2-1V23.071c0-.21.023-.417.031-.626l4.524,4.524c-.209.008-.416.031-.626.031Zm15.293-4.707A15.962,15.962,0,0,1,33.1,26.688L30.414,24,33,21.414l1.293,1.293,1.414-1.414L34.414,20,36,18.414l1.293,1.293,1.414-1.414L37.414,17,39,15.414l1.293,1.293,1.414-1.414L40.414,14,43,11.414,45.688,14.1A15.958,15.958,0,0,1,41.293,22.293ZM46,7v3.929c0,.21-.023.417-.031.626L41.445,7.031c.209-.008.416-.031.626-.031ZM30.707,11.707a15.962,15.962,0,0,1,8.191-4.4L41.586,10,39,12.586l-1.293-1.293-1.414,1.414L37.586,14,36,15.586l-1.293-1.293-1.414,1.414L34.586,17,33,18.586l-1.293-1.293-1.414,1.414L31.586,20,29,22.586,26.312,19.9A15.958,15.958,0,0,1,30.707,11.707Z"/><path d="M23,43H49a1,1,0,0,0,1-1V32a1,1,0,0,0-1-1H23a1,1,0,0,0-1,1V42A1,1,0,0,0,23,43Zm1-10H48v8H24Z"/><path d="M48,27H46v2h3a1,1,0,0,0,1-1V25H48Z"/><path d="M24,7h2V5H23a1,1,0,0,0-1,1V9h2Z"/><rect x="26" y="36" width="16" height="2"/><rect x="44" y="36" width="2" height="2"/><path d="M53.9,46.447A1,1,0,0,0,54,46V2a1,1,0,0,0-1-1H17a7.008,7.008,0,0,0-7,7V52a7.008,7.008,0,0,0,7,7H36v3a1,1,0,0,0,1.707.707L41,59.414l3.293,3.293A1,1,0,0,0,45,63a.987.987,0,0,0,.383-.076A1,1,0,0,0,46,62V59h7a1,1,0,0,0,.9-1.447l-1.106-2.211a7.472,7.472,0,0,1,0-6.684ZM52,45H20V3H52ZM12,8a5.006,5.006,0,0,1,5-5h1V45H17a6.973,6.973,0,0,0-5,2.111Zm5,49a5,5,0,0,1,0-10H51.382L51,47.764A9.4,9.4,0,0,0,50.5,49H17a3,3,0,0,0,0,6H36v2Zm33.059-4H46V51h4.059a8.5,8.5,0,0,0,0,2ZM36,51v2H17a1,1,0,0,1,0-2Zm5.707,6.293a1,1,0,0,0-1.414,0L38,59.586V51h6v8.586ZM46,57V55h4.5a9.452,9.452,0,0,0,.5,1.236l.382.764Z"/><text x="0" y="79" fill="#000000" font-size="5px" font-weight="bold" font-family="'Helvetica Neue', Helvetica, Arial-Unicode, Arial, Sans-serif">Created by Start Up Graphic Design</text><text x="0" y="84" fill="#000000" font-size="5px" font-weight="bold" font-family="'Helvetica Neue', Helvetica, Arial-Unicode, Arial, Sans-serif">from the Noun Project</text></svg>