<svg xmlns="http://www.w3.org/2000/svg" viewBox="0 0 64 80" x="0px" y="0px"><g data-name="16 American Football"><g><path d="M21,20H13c-5.537,0-7-4.579-7-7a1,1,0,0,1,1-1H18a1,1,0,0,1,0,2H8.105A4.588,4.588,0,0,0,13,18h8a1,1,0,0,1,0,2Z"/><path d="M50,33c-3.226,0-5.7-3.263-5.8-3.4a1,1,0,0,1,0-1.2c.1-.139,2.575-3.4,5.8-3.4s5.7,3.263,5.8,3.4a1,1,0,0,1,0,1.2C55.7,29.737,53.226,33,50,33Zm-3.678-4A5.7,5.7,0,0,0,50,31a5.7,5.7,0,0,0,3.678-2A5.7,5.7,0,0,0,50,27,5.7,5.7,0,0,0,46.322,29Z"/><path d="M54.528,36.15a1.006,1.006,0,0,0-1.128.05c-.037.028-3.821,2.8-11.4,2.8-3.838,0-5.637-3.424-6-4.211V25c0-2.29.815-3.8,2.3-4.245,1.738-.53,4.631.436,6.873,3.8a1,1,0,1,0,1.664-1.11c-2.444-3.666-6.111-5.515-9.116-4.605C35.354,19.556,34,21.8,34,25V35c0,3.557-3.418,5.866-6.433,7.9C25.117,44.56,23,45.991,23,48a11.7,11.7,0,0,0,1.253,4.992A12.529,12.529,0,0,1,25.4,60.707C23.18,57.909,19,52.1,19,48c0-2.957,1.939-5.422,3.814-7.807C24.453,38.111,26,36.145,26,34V22c0-4.347,4.42-9,11-9A11.738,11.738,0,0,1,49.014,23.167a1,1,0,0,0,1.972-.334A13.662,13.662,0,0,0,37,11c-7.776,0-13,5.688-13,11V34c0,1.452-1.339,3.154-2.757,4.957C19.254,41.485,17,44.351,17,48c0,6.308,7.915,15.285,8.252,15.664A1,1,0,0,0,26,64a1.028,1.028,0,0,0,.251-.032,1,1,0,0,0,.725-.751c1.316-5.921.146-8.629-.887-11.019A9.776,9.776,0,0,1,25,48c0-.947,1.874-2.214,3.687-3.44,2.563-1.731,5.611-3.8,6.8-6.852A8.184,8.184,0,0,0,42,41a25.674,25.674,0,0,0,10.322-1.955C50.615,42.815,46.547,45,41,45a37.186,37.186,0,0,1-7.758-.97,1,1,0,0,0-.485,1.94A38.506,38.506,0,0,0,41,47c7.49,0,12.848-3.761,13.983-9.815A1,1,0,0,0,54.528,36.15Z"/><path d="M29,0a7.007,7.007,0,0,0-6.946,6.167A3,3,0,0,0,20,9v3a3,3,0,0,0,3,3h2a1,1,0,0,0,0-2H23a1,1,0,0,1-1-1V9a1,1,0,0,1,1-1h5v2a1,1,0,0,0,2,0V8h1a1,1,0,0,0,0-2H24.1A5,5,0,0,1,34,7V9a1,1,0,0,0,2,0V7A7.008,7.008,0,0,0,29,0Z"/></g></g><text x="0" y="79" fill="#000000" font-size="5px" font-weight="bold" font-family="'Helvetica Neue', Helvetica, Arial-Unicode, Arial, Sans-serif">Created by Berkah Icon</text><text x="0" y="84" fill="#000000" font-size="5px" font-weight="bold" font-family="'Helvetica Neue', Helvetica, Arial-Unicode, Arial, Sans-serif">from the Noun Project</text></svg>