<svg xmlns="http://www.w3.org/2000/svg" viewBox="0 0 32 40" x="0px" y="0px"><title>a</title><g data-name="07 Time"><path d="M18.084,5.977a3.163,3.163,0,1,0-4.168,0,11.665,11.665,0,1,0,4.168,0ZM16,1.455a2.159,2.159,0,0,1,.5,4.26v-2.1a.5.5,0,1,0-1,0v2.1a2.159,2.159,0,0,1,.5-4.26Zm0,26.653A10.665,10.665,0,1,1,26.665,17.444,10.676,10.676,0,0,1,16,28.108Z"/><path d="M24.2,13.2a.5.5,0,0,0-.888.461,8.08,8.08,0,0,1,.891,3.28h-1.19a.5.5,0,0,0,0,1H24.2a8.225,8.225,0,0,1-7.7,7.7V24.453a.5.5,0,0,0-1,0v1.193a8.225,8.225,0,0,1-7.7-7.7H8.991a.5.5,0,0,0,0-1H7.8a8.227,8.227,0,0,1,7.7-7.7v1.194a.5.5,0,1,0,1,0V9.24a8.167,8.167,0,0,1,5.28,2.354.5.5,0,1,0,.7-.712A9.2,9.2,0,1,0,24.2,13.2Z"/><path d="M19.3,30.545h-6.59a.5.5,0,1,0,0,1H19.3a.5.5,0,0,0,0-1Z"/><path d="M16,11.712a.5.5,0,0,0-.5.5v4.732H12.705a.5.5,0,0,0,0,1H16a.5.5,0,0,0,.5-.5V12.212A.5.5,0,0,0,16,11.712Z"/></g><text x="0" y="47" fill="#000000" font-size="5px" font-weight="bold" font-family="'Helvetica Neue', Helvetica, Arial-Unicode, Arial, Sans-serif">Created by Berkah Icon</text><text x="0" y="52" fill="#000000" font-size="5px" font-weight="bold" font-family="'Helvetica Neue', Helvetica, Arial-Unicode, Arial, Sans-serif">from the Noun Project</text></svg>